<mxfile host="app.diagrams.net" agent="Mozilla/5.0 (Windows NT 10.0; Win64; x64) AppleWebKit/537.36 (KHTML, like Gecko) Chrome/135.0.0.0 Safari/537.36 Edg/135.0.0.0" version="26.2.15">
  <diagram name="Trang-1" id="U58uDlTm80Zl1WHScXyT">
    <mxGraphModel dx="1034" dy="578" grid="1" gridSize="10" guides="1" tooltips="1" connect="1" arrows="1" fold="1" page="1" pageScale="1" pageWidth="827" pageHeight="1169" math="0" shadow="0">
      <root>
        <mxCell id="0" />
        <mxCell id="1" parent="0" />
        <mxCell id="6W5vID1pn_LtxOiUaOSo-1" value="" style="rounded=0;whiteSpace=wrap;html=1;" vertex="1" parent="1">
          <mxGeometry x="80" y="30" width="720" height="500" as="geometry" />
        </mxCell>
        <mxCell id="6W5vID1pn_LtxOiUaOSo-3" value="Home" style="text;html=1;align=center;verticalAlign=middle;whiteSpace=wrap;rounded=0;" vertex="1" parent="1">
          <mxGeometry x="100" y="40" width="60" height="30" as="geometry" />
        </mxCell>
        <mxCell id="6W5vID1pn_LtxOiUaOSo-4" value="Help" style="text;html=1;align=center;verticalAlign=middle;whiteSpace=wrap;rounded=0;" vertex="1" parent="1">
          <mxGeometry x="710" y="40" width="60" height="30" as="geometry" />
        </mxCell>
        <mxCell id="6W5vID1pn_LtxOiUaOSo-5" value="&lt;font style=&quot;font-size: 17px;&quot;&gt;VNBookStore&lt;/font&gt;" style="text;html=1;align=center;verticalAlign=middle;whiteSpace=wrap;rounded=0;" vertex="1" parent="1">
          <mxGeometry x="334" y="50" width="160" height="30" as="geometry" />
        </mxCell>
        <mxCell id="6W5vID1pn_LtxOiUaOSo-6" value="" style="rounded=0;whiteSpace=wrap;html=1;" vertex="1" parent="1">
          <mxGeometry x="110" y="90" width="660" height="60" as="geometry" />
        </mxCell>
        <mxCell id="6W5vID1pn_LtxOiUaOSo-7" value="Basket" style="text;html=1;align=center;verticalAlign=middle;whiteSpace=wrap;rounded=0;" vertex="1" parent="1">
          <mxGeometry x="274" y="105" width="60" height="30" as="geometry" />
        </mxCell>
        <mxCell id="6W5vID1pn_LtxOiUaOSo-8" value="Delivery" style="text;html=1;align=center;verticalAlign=middle;whiteSpace=wrap;rounded=0;" vertex="1" parent="1">
          <mxGeometry x="384" y="105" width="60" height="30" as="geometry" />
        </mxCell>
        <mxCell id="6W5vID1pn_LtxOiUaOSo-9" value="Payment" style="text;html=1;align=center;verticalAlign=middle;whiteSpace=wrap;rounded=0;" vertex="1" parent="1">
          <mxGeometry x="494" y="105" width="60" height="30" as="geometry" />
        </mxCell>
        <mxCell id="6W5vID1pn_LtxOiUaOSo-11" value="" style="rounded=0;whiteSpace=wrap;html=1;" vertex="1" parent="1">
          <mxGeometry x="110" y="180" width="420" height="160" as="geometry" />
        </mxCell>
        <mxCell id="6W5vID1pn_LtxOiUaOSo-12" value="" style="rounded=0;whiteSpace=wrap;html=1;" vertex="1" parent="1">
          <mxGeometry x="110" y="360" width="420" height="140" as="geometry" />
        </mxCell>
        <mxCell id="6W5vID1pn_LtxOiUaOSo-13" value="" style="rounded=0;whiteSpace=wrap;html=1;" vertex="1" parent="1">
          <mxGeometry x="570" y="180" width="180" height="90" as="geometry" />
        </mxCell>
        <mxCell id="6W5vID1pn_LtxOiUaOSo-14" value="" style="rounded=0;whiteSpace=wrap;html=1;" vertex="1" parent="1">
          <mxGeometry x="570" y="300" width="180" height="60" as="geometry" />
        </mxCell>
        <mxCell id="6W5vID1pn_LtxOiUaOSo-15" value="TỔNG TIỀN" style="rounded=0;whiteSpace=wrap;html=1;" vertex="1" parent="1">
          <mxGeometry x="570" y="390" width="180" height="90" as="geometry" />
        </mxCell>
        <mxCell id="6W5vID1pn_LtxOiUaOSo-16" value="NỘI DUNG SÁCH TRONG GIỎ HÀNG" style="text;html=1;align=center;verticalAlign=middle;whiteSpace=wrap;rounded=0;" vertex="1" parent="1">
          <mxGeometry x="150" y="210" width="230" height="90" as="geometry" />
        </mxCell>
        <mxCell id="6W5vID1pn_LtxOiUaOSo-17" value="SÁCH GỢI Ý" style="text;html=1;align=center;verticalAlign=middle;whiteSpace=wrap;rounded=0;" vertex="1" parent="1">
          <mxGeometry x="140" y="410" width="240" height="50" as="geometry" />
        </mxCell>
        <mxCell id="6W5vID1pn_LtxOiUaOSo-18" value="PHIẾU GIẢM GIÁ" style="text;html=1;align=center;verticalAlign=middle;whiteSpace=wrap;rounded=0;" vertex="1" parent="1">
          <mxGeometry x="630" y="315" width="60" height="30" as="geometry" />
        </mxCell>
        <mxCell id="6W5vID1pn_LtxOiUaOSo-19" value="VẪN CHUYỂN" style="text;html=1;align=center;verticalAlign=middle;whiteSpace=wrap;rounded=0;" vertex="1" parent="1">
          <mxGeometry x="630" y="210" width="60" height="30" as="geometry" />
        </mxCell>
        <mxCell id="6W5vID1pn_LtxOiUaOSo-20" value="ĐẾN DELIVERY" style="rounded=0;whiteSpace=wrap;html=1;" vertex="1" parent="1">
          <mxGeometry x="600" y="490" width="120" height="20" as="geometry" />
        </mxCell>
      </root>
    </mxGraphModel>
  </diagram>
</mxfile>
